/* XPM */
static char *result[] = {
/* columns rows colors chars-per-pixel */
"64 64 87 1 ",
"  c #2A2C1F",
". c #2E3224",
"X c #323427",
"o c #34362A",
"O c #36392B",
"+ c #3A3C2D",
"@ c #3D3E31",
"# c #413F32",
"$ c #3E412E",
"% c #3F4133",
"& c #41412C",
"* c #424435",
"= c #484735",
"- c #464837",
"; c #4A4A36",
": c #454638",
"> c #484639",
", c #46493A",
"< c #4B4C3C",
"1 c #514F3E",
"2 c #4D513E",
"3 c #52513E",
"4 c #4D4E41",
"5 c #504F41",
"6 c #4F5142",
"7 c #535544",
"8 c #595644",
"9 c #565946",
"0 c #5A5A46",
"q c #555648",
"w c #585749",
"e c #565A49",
"r c #5B5D4A",
"t c #5D5F50",
"y c #615E4B",
"u c #615F50",
"i c #5D614D",
"p c #5E6251",
"a c #62624D",
"s c #68644E",
"d c #636552",
"f c #696652",
"g c #656953",
"h c #6A6B54",
"j c #656659",
"k c #666958",
"l c #6B6D5A",
"z c #706D57",
"x c #716E5C",
"c c #6E7057",
"v c #6E715C",
"b c #72725D",
"n c #79785F",
"m c #676861",
"M c #6D6F60",
"N c #706E60",
"B c #6E7161",
"V c #737563",
"C c #797663",
"Z c #767965",
"A c #7B7A65",
"S c #767668",
"D c #777A69",
"F c #7B7C6B",
"G c #7E7F70",
"H c #817E6C",
"J c #7E816D",
"K c #7F8170",
"L c #82826E",
"P c #848472",
"I c #898673",
"U c #868976",
"Y c #8C8A76",
"T c #878979",
"R c #8C8D7A",
"E c #908C77",
"W c #918D78",
"Q c #8E917C",
"! c #92927D",
"~ c #959482",
"^ c #989784",
"/ c #9B9986",
"( c #9B9C89",
") c #A09E89",
"_ c #A6A590",
"` c #AAAE9A",
"' c #B0B19C",
/* pixels */
"~PIYIYEEEY0VQRRRYYTUUYUUIPPPURIg/^(/WIPFJFFZVDJFAFJFKeRWWWEEEEH~",
"7wwusssssa+haeidkgggdgrddrrrig9<Flxgdy08877990e0rr0ee&luyyyyuuuu",
"83173s0aia&ha7isgggdgjuddirrig77Viaaayrreie0eareiadaa;fywy011>58",
"0r0r3ass0s=hd9iadgdildapieerei76bfhsarrr0i08iiaaadfas;ssyyyy8888",
"aiiayai30f=bd3eiadedgdiiirrr0i91blhhy800q09eyryweafah1ssssyyy888",
"iaaa0as08a=li799ee0diiiiaddieie7bhggy07w7q0e00w570shz1ssyyyyy188",
"0aayass00a;gd90eq7rriaipggdgiai3nclhfr0qqwtrrryyrrzbz3zssssssyy1",
"><2;;;;;*+O%%&**%%%%*--;,>:%+%*>r0e074<<,,4<<<1;87<33&333;;1111=",
"vBZZVbArrHZVVlVVJcgcgccvJJJ9JJJJAHAnbchfffjxHHnHV8QQYYILLLLLHHCC",
"igssaae$0hifiaari09iiiii9i$9J9Jghzzhfsyrrrryssyu87ACLnnnzHbhsfay",
"ie00i90*0f9riir09ii9i3ii99-2i29900yya3y3w8r0y88y18c0fhsssys3yfsa",
"i08aaee*0g7riiaaagg99ii29922g29i00assa3iryy0888y;8visshgssssaafa",
"000r009*9a0ii9iaggii99i92922i2i9000a00i000y8888y83hyiidgshfgahha",
"r808888*3iii00iigiii99999i--ie990yi0iiiiyyy8383y71f0iiadgchhlssy",
"88778ra29ie99ii3iiiii9999i2-ie9iry80000300153888<>f0iigccbbchay8",
"1880077;%;*-;2;2222-2---$2-$-$22<,-,22;2<>=#####@,4weipdddd037<1",
"0yux8y~HKKKJJJJJJJJJvJJJJDDU2vDJJJJAJJDZlkgffuffffwHZJLJLJJJJcch",
"8881XyNupiggiiii999iiiiigggg-viiiee0iii078851888y55N9dgcccccgga0",
"8888+5u529i9ii9i9iiiiiigggpg2gpii09e999908088088w8>xagghgcgccsii",
"8818@quw99ii9iiiiiiiigagpggg-pii9ii0i0ee708wry0807>ligcsgcggci0a",
"yw8r#5dwe99eeiiiipeiiiggggpp$pipiii3ei097790ryyyy3>fudhgccgggiic",
"y07t#qkre9999eiieeeeiigggggp-gggaa9ide9777878yr0y8=fayslcgiccagc",
"ddut@qkrppieieii2ieeeppgggvg-ggggagddp887777yyyysf=fdgjhhsggcgcc",
"5<<:+:4>22--$-$$---%-%2--222$e2ie392<<<<<#+*;11111o#*#**-;$;;33;",
"CxxxxlxxxVVAJvJJggQJJDDDvDDDJJJJJJAZFFP4F/HSHHHHHHHHFVVVJcnZAYA0",
"dwwryruyrrrei9ii-gJegpipgggggggvhgigkglONFuufhzzzzlluydugiascna0",
"syy8wyrreirri9i2-eJ2iippiippipggdi98e7eOdj<77yfhfhfyw7rriiiisza7",
"yy0rrr80idaii9ii-2Jepiie2ipiigpiii0iq0r+fV7rruyfzfdrrrtriiiidla3",
"yyyyy0raddaiiiii-egepieeiii2iiiirrreqrr*jxwrrrrdsfa0errtrrriiae<",
"yyaayyafgglgsaag2eJipee29992i2iprwqw70t:dMwurtdgdfgreerdpddddcg;",
"80y00aayrihgisigp2gei2iiiiiii22274466w0@rq,:46746444:%>4777e972*",
"808808;1<32,222eee222229222222224<447744444444476754466644q77<<2",
"vbZAAP7I^YQRR~~RQTJJJKPYUQEQ!!Fr_^UHHHHDSDSDVSSGGHGSDGSDtj(PHFDC",
"i00ieg+IUbZvvvkglgreeidgccashl77/k00yr0w7q676qterttteqwt@wM477ea",
"dapggl>Vgiieeq77669799riiiii0a37Yyyaarrrteeeeetptjjgptte%7j7e00r",
"gihhhh<lheriire9977799eri0idad<7Hryyaaiateeeqepjtpddptqq@6j6re0e",
"dgghjg@Mgeeei779777qe7003iissa<7Vrassaar6teqqeptpjjdjtqq@4j70e0p",
"shgpte@lde70e0779eeeqq9riaschy;7veaaay0rpeeeeeettttjpteq@4gee0rd",
"hgiipg@pde00eriere0rrqeidggssby<lashsdrdpettptppttdjjtte44vrprea",
"92-;47@4:@**$*<>>><,,,>2;23310=#<;327<<644:44444444444,:@%6,4->>",
"vbvZvBv>BJvljfairtadrqq:SSzhhjhdaaagigiii-BDSSBmmjjjtwqtpjt7MMlk",
"hcggaie%agdaryiirieae04@Sfyryy0rsghhchgdg-Bkppppppjpwqqwrt4wt0gd",
"pgggdii%e9e9q7e9eer077<@a58888wriiaghdipk%Bgppppdptqq6477w45a8ia",
"dggdiid%eieireiiiri7775*r87wu8w09eisgidpk,lgeeepgrtwqqq44t,4r80i",
"aagaiii-ei9ieeiii9087r7*dyw8r0993idddrggv6kg666teeeqqq7458>5r880",
"aiiidii%eieiiieir9rr000>jr888099iaidpfddg6pp6q66qqq7q4q78r;7fy0a",
"00e0iii%9i79eeeee70q77r*urr08eiiirptiddrg,iq4446644444,457;<aasa",
"i3669ee7,2,>29q7<>>4><75rw7q77qqepre7q762%%@O@%%*%:@##:,>>>>;23;",
"YILJJJJJJJUUZB(KJJJJKTUKJFDDDDDJKTg'((~QTKJJJJJJVBVvBVVFHHAHLr))",
"ssaiii93iipg2iBiippighr990r779eiie%QBpppppee222iqqqq7qwrttiaf$)^",
"0iiiiii02i2i%pk62i99999eeeeeqerepi6v7iiqeeee2e2277777qwt00iai3L8",
"99iiiai9392p2pB6iee99977qqrtrieii22Zppiq2eeeepp279777eq7q0rr0;La",
"99igiiii9eep%kJe99e9997q6eepppiip96Jppp9eeeppepe997qee7577709$Ah",
"29iiiiiaiepp%pJ2iieie090qttpjppppp2Zppi9eeppeeie77776774747q3%le",
"99iiacggiigg%pkeddddfaareppppteipp2Vppepeppppppp79ee77qewqqw4@g0",
"X$$$;&$$$$%%$%%$$&-***@@%%,%@%--,%$6%,%,,,%,$OO$%$**@@@@@@@OO @.",
"SjREYELIJJJJJJcnCHHHHLIAuTPFDVVMkklBVZZDJeJJ9JJJJDDJDBVVVtlGVDFF",
"d>^UHLHnJJccscJnCCCHHnFrwFgkdrppppdhcvlkJ9922`(JJJBVkpkpM:jSlBVV",
"4#z833yy9gga0i00r007880*tVddrqreieeagcgdJ2Je2J22%26666467.jp<437",
"5:nayssfiisgsaaadadfssf;rVrdwrr0eiegglvg92Je-Jpppee6eiieqXjl777q",
"4#xr0sfzayaaai90e0dfaay;eMrtte00eieallblpJep%Jpeeee96tppe@ju70er",
"q@j8yffdyr0ei93900raudr,7j70r0e00eisglgapeei,Jpeee99eptetOtt<70r",
"5#uyysasa00933i3earudyu,6jpriie0iihhggfaJeJp,p2e2e2eqqq64ottrre0",
"m ##*#&;;*%$$$$$*>>**##@*,%%$***--2<->,>%%O,O%.OO.O$@@OXXX:@,,#q"
};
