/* XPM */
static char *_b70bc7308524da989636fc2bd15acfcvazYXgQ2oZIJUe6u[] = {
/* columns rows colors chars-per-pixel */
"64 64 77 1 ",
"  c #1D1B1C",
". c #1E1F23",
"X c #242326",
"o c #262629",
"O c #292629",
"+ c #27292B",
"@ c #2C2B2D",
"# c #312D2E",
"$ c #35302F",
"% c #2D2E31",
"& c #312F31",
"* c #2E3134",
"= c #333235",
"- c #3A3535",
"; c #3A3937",
": c #353639",
"> c #393739",
", c #36383C",
"< c #3B3A3D",
"1 c #413D3D",
"2 c #3D3D42",
"3 c #413F42",
"4 c #3E4145",
"5 c #3E4148",
"6 c #434245",
"7 c #494446",
"8 c #44464B",
"9 c #49464A",
"0 c #46494E",
"q c #4A4A4E",
"w c #514C4D",
"e c #444750",
"r c #474A50",
"t c #494C52",
"y c #4D4C50",
"u c #4C4C51",
"i c #4B4D55",
"p c #4A4E54",
"a c #4E4E54",
"s c #4D4F58",
"d c #504D53",
"f c #524F55",
"g c #4E5053",
"h c #4F5055",
"j c #4C5056",
"k c #4F5457",
"l c #4E5158",
"z c #4F545A",
"x c #555152",
"c c #535254",
"v c #515257",
"b c #545356",
"n c #555357",
"m c #525557",
"M c #5A5657",
"N c #515359",
"B c #555358",
"V c #51545A",
"C c #545458",
"Z c #51555C",
"A c #59575B",
"S c #59575C",
"D c #55585E",
"F c #5A5A5D",
"G c #605D5E",
"H c #575A61",
"J c #585B60",
"K c #5B5C62",
"L c #5E5E61",
"P c #605F63",
"I c #5E6066",
"U c #626064",
"Y c #646268",
"T c #62646A",
"R c #68686B",
"E c #6B696D",
"W c #727175",
/* pixels */
"E6uuu6@<duuuaaahhVh00uuuh62>=2vmLCvhkNhhhalhCn61<>:3qqqutttiuirD",
"3duh8=+8uuudahahNDr888uh023%%<q<26vNDhiiauuCA1<<<;-9quuuruuuuuue",
"quau<%,auudfvhhNDh9888ru2422:6q<::<gVzZhiuCv<<11;=6q9uuuuuuuttuu",
"9qq2%%uuaddnvVVDN89888u422qfv6896622,6uVhuu;<1<>=-x9qquuiuuur080",
"8u2,%rauvnnBCmJh2u988002<8ufWPYLCBfu842:==,<<>66=-7q9dquiuur8988",
"u8,=6luuvAFvu8248u88882,<uuKLFLJDSCDVDHl2=+=><66<-<q6v8qq0Nu8866",
"2,,%liuvvCv86642qa45882:9uvJhmhlhahNDKDHKV82<>66-=><qA8qqu866663",
":<=<lihu09986622602262:2uuVuaaaNNhaiihriNhCCvvq7<@&=<9q6v8666666",
"*@oVZ00988666642<3222::0uNuuiiiaaiaairrr880uhvq663>@=:<9q9966666",
"+++hi088666466222<<<<:80ha9uuu8ahuiiuu0rr0088ru86662O&=6q73>==%+",
"044:49866622<<<>>:><<688u9ruuruiiutuuur00000888t0822=+=>=@@+++@%",
"Nahh,588663<<>>::=><266u88ruuuuuuuuuuuutr0000888ru8:2&@@O@#:::<<",
"0url2,66663<<<-:>=>:28Dh6000urruuuuuuuuuuurqu88884822< O:26888qq",
"uuuuD:222<<<>--:%+:@%2Du800ruuuuuuurruuuuuuuu000882q4<:6q99qqquu",
"uuuul0%<:===@=>==::%=,2u90uaiur0800r0rrquuuqq0809986<=6689qq0quu",
"0uuruN@+=:<<<664428<+<29r9irur0ttrtttr0ruuuuu0009882<%>68qquuuuu",
"uurraZ%ru9uuu0au0890@=<2qu8iuuuurrttrurruuuuu009896<>=@8qquuquuu",
"uuu9Du:rICuq088888508*,<2<qv9urrrrrrrrrrruuu0998q6<<===>uqqquuuu",
"uuruH,2uV86699988886uu,:=6Uf0ur0rrrrrrrrr00r00qv9<3=+uq=qhq0uqqu",
"uurZl*0Du89898888889008=@<qAqu000000rrrrr00quuq96<=&uNN0<uqq0qqr",
"uuuH42lN9999998898888886@=<6vu80999900rr00uuq666::2CDVNa*8a80qqq",
"urll:rlr999909809riru99q6+=16gg9rruu000ihauq896:**2qaNDD2%uu0quq",
"rrl02ii8989998000ri8ut09q9@>6<VD0ruughTZi0882><:2900824u4%=60q00",
"irl58i08898880080r84uu008d9@><4CIJZHCuH4422:@:uuuuVDZZu42<%<60u0",
"ruu4ri8088888880rrraurr0q8v6+<2<VD0r482,22,%:88auquhVHKHVu2%6qq9",
"0u92it8808888880rruurr00098n<%:<08888522,=+=vv80uuuuihuiuau2%48q",
"9N22Ki888888998800908r00986uu<<28662,=%@+.+vv89qquuuuuiiu0uvq%,9",
"u8%2Kz8089888988888889988668928,:2*:4uu86<*90680uuuuuuhiuuqv02<2",
"u+:24h9998889998888899888666q<>:6*8VNi0062,%288ruuutuuhhquv8%8u=",
"*,2*:8u8898898988888999866669<&3q6Fu0u08662=,08uuuuttuthhv6X,20q",
":08,*2h000098u088888888866637;-766q80q08866:=8aur00tuiDh8<:@686u",
"4088*:*269u8q0868880q88889671#7ww6688889888::2uNuhltriu===%&99qn",
"qRFvh6:..o=6qqudvuqq8889777;-@-7<@>3666889a,%22DTu82:**%%@oO7w9q",
"8LCqtVKu8<%O+:<<9vvnnnq77q1;#X#;-=O&2669q4<=o<24022:*%@@=:::>7<&",
"uCvuutuhNvuu6>*@O+==>qAMw1-$@<9w766>O:92=%%4<::,<,%o%<48udww<@@6",
"vvughhuuruahunqq62<<>@#71==#9w9977q92===%%8u86=:*%280uqq99776O6q",
"uauhhhuuuuuhugggguqq963==@#wqqqq99888q:+:uu86a6++6huuqqqq9866&<3",
"uuuhhiihhiihauhhhuuqqqdCu=vuquuquqq088qo8v66688o<ur0ququu08863>6",
"uhhhhhhhlhhhhiuhlhuuuu8FqqCqiur9uuuq88q6:q66689=quu88uq0008888>3",
"hhhhhhhhhhhhhguhhhhuuuuv26vuauuuuaiuq09q<16><8>6uqq0uq008898892>",
"hhhlhhhhhhhhhhhh0hNhguuC42huuiuuiiihuu999=<136=qqqttuq000098886=",
"hhVllVlVhhhhhhhhhvhvudnn<,Nquuuuuiihiu09q1#-7>=9qutuuqq00009889=",
"uhllhhhhihuhtthhhghvCS9>:=uuuuuuuihhitq9qu;#13:8quuutrr0009986q<",
"uhhhhhiiuuuutttjhuuvL8<<++2ququutuihiuq9qd<>>6=6qttrutr00998899=",
"uhhhhhiiuuu0tuuuuhKC662=<2<89qqqqtihhiu908:3>2:800ruiur00r98886O",
"uhhhiiihiuuhauhuZTV886>%68:6288q0quiuhuuuq>69==uqruiiiurthu8882o",
"uhhhvhuu09986880TD686<==86:<<<2uuuauuhhivq>6<@&q9rrrtiurru9888<=",
"8hCNq08662::::,<2q622:=6qq::<:<2<8aNNhuuv6<<:=@98900riuruu8868=<",
"<:<36896>==::<<2222::o=vC8++==:<<26qVZDZD0<><==d89urruiqquq88<%:",
"u=@=:==@O&:======<<3@2666:@++@@;<<<<<4ulDC>>>==8q9rrrur98888:%@%",
"2==><767qqu<:666uuquAnGv99866<>@#->::,2,:66<>=:<u9uutu098qu=@%:2",
"<166>dPLVuu8<vquuq09F&qvq886369>vFnuu2====<<<%<68auuuqq861-@@%q8",
"9qw7-@nIVa0q<6u9qq9un=:d976676>dnuuhZKZ042::=o=22auuuqqq1&#@+22<",
"uuqq<&3Lzhuu:9uqduqqv6#6966w6<CCuaaiuhDDhDVVV8+X%=:9Dmn6##@+>848",
"uuq98>=hhha6qCqduauuvq<=dww61SChllaaalhiNhNZVVN2::*=8F6&&&#=6quv",
"0ruq86=>vm69Fudughuqua6&q9-qFVhzZlhhhlhiaahlhalN82:==2:>:=<9qqqu",
"0uuu9q6#>92nqffhvhgVN98><=nFhlllZZVllaiiiiahhaaihr4==<<>67duuuiu",
"9r0008q6@>vqdfhhhhhVlu06:6ClVVVVlVhzhaaaaiuaaiiiuavqq<=<ququiiuu",
"90900997<dvuflhhhhhZu0q0<6VhDHVZVVllhhauuuuiuuuuuuav<>>ququaauuu",
"000qq09q<dduvlhhhlhlr0uuq2nvnCNVVVVVzhhaaaaiuiuuiuv8=:6uquuuquu0",
"00qqqqq8<wduhhhhhlllhuuuq66wnnCVVVVVlNlsahliiiiuuud<&<qquuuuuuuu",
"u0qqqqu<<qduuaaihhlirhhuq8>>nADDDVllhhaaaaaiuuu0uq<::69quuuuuuuu",
"2q9qqqq%6qughaaihlNu0uuhvu6=>LJDCCNNllhiiaaslhuu9<>:<q0uuuuuuuu0",
"R6uquu<&qudghaaahVVu0uuuqv8:=CTJFCCvllllhhhVzVB8<<>:9qquuuiiiirD"
};
