/* XPM */
static char *_3aeed17920a4b63e6bf8cc884c04ad0Hgw9XvlzMwIadF8u[] = {
/* columns rows colors chars-per-pixel */
"64 64 164 2 ",
"   c #00001B",
".  c #010323",
"X  c #040B24",
"o  c #0B0E26",
"O  c #0F1326",
"+  c #0D1128",
"@  c #0E1928",
"#  c #161C27",
"$  c #13152A",
"%  c #151B2A",
"&  c #1A1D2A",
"*  c #1D232D",
"=  c #1E282E",
"-  c #1F2731",
";  c #1F2831",
":  c #21252E",
">  c #24292E",
",  c #282C2E",
"<  c #232730",
"1  c #252B31",
"2  c #292E32",
"3  c #273032",
"4  c #2C3235",
"5  c #2D3837",
"6  c #2E3538",
"7  c #2F3A38",
"8  c #303637",
"9  c #323A36",
"0  c #313639",
"q  c #343B3B",
"w  c #393E3D",
"e  c #3B4236",
"r  c #37413C",
"t  c #3B423D",
"y  c #41463F",
"u  c #41493E",
"i  c #373D40",
"p  c #393E41",
"a  c #374040",
"s  c #3D4442",
"d  c #3F4942",
"f  c #404643",
"g  c #444B44",
"h  c #484E46",
"j  c #464D49",
"k  c #494E4A",
"l  c #465043",
"z  c #4B5246",
"x  c #46514A",
"c  c #4C544B",
"v  c #4E594D",
"b  c #535547",
"n  c #595645",
"m  c #515B47",
"M  c #51564D",
"N  c #545B4D",
"B  c #5A5D4D",
"V  c #4E5752",
"C  c #4E5952",
"Z  c #515651",
"A  c #545C52",
"S  c #595E52",
"D  c #505D58",
"F  c #56604F",
"G  c #5C624E",
"H  c #566153",
"J  c #5C6353",
"K  c #5E6955",
"L  c #576258",
"P  c #5C6459",
"I  c #5E6A5A",
"U  c #62634E",
"Y  c #60684F",
"T  c #696C4E",
"R  c #616654",
"E  c #686755",
"W  c #646A55",
"Q  c #6A6C55",
"!  c #616659",
"~  c #646C5A",
"^  c #6A6E59",
"/  c #716F54",
"(  c #716E59",
")  c #667054",
"_  c #6B7156",
"`  c #66715C",
"'  c #6C735C",
"]  c #6D795E",
"[  c #6E785F",
"{  c #6C7C5F",
"}  c #727155",
"|  c #70715A",
" . c #70765B",
".. c #75755A",
"X. c #70735C",
"o. c #70745C",
"O. c #73795E",
"+. c #72785F",
"@. c #7A7B5E",
"#. c #696F61",
"$. c #677361",
"%. c #667461",
"&. c #6C7163",
"*. c #6B7561",
"=. c #6D7760",
"-. c #6E7660",
";. c #6A7960",
":. c #6F7A60",
">. c #6F7D63",
",. c #6D7965",
"<. c #6D7C64",
"1. c #6F7E68",
"2. c #707761",
"3. c #707860",
"4. c #737860",
"5. c #727A63",
"6. c #777B62",
"7. c #737C63",
"8. c #757C62",
"9. c #747E63",
"0. c #767F67",
"q. c #797B62",
"w. c #787C63",
"e. c #7A7E63",
"r. c #717F68",
"t. c #718264",
"y. c #768166",
"u. c #758564",
"i. c #7A8165",
"p. c #708068",
"a. c #728169",
"s. c #75836B",
"d. c #748568",
"f. c #758668",
"g. c #77866D",
"h. c #7B856A",
"j. c #7A856B",
"k. c #7F8669",
"l. c #77886E",
"z. c #7F886B",
"x. c #7D896D",
"c. c #7B8770",
"v. c #7D8B71",
"b. c #81866C",
"n. c #828B6D",
"m. c #858B6C",
"M. c #828D72",
"N. c #898D73",
"B. c #868B78",
"V. c #869174",
"C. c #849274",
"Z. c #899272",
"A. c #8A9375",
"S. c #859479",
"D. c #8A9678",
"F. c #8E9879",
"G. c #8C9A7B",
"H. c #919D7D",
"J. c #93A07F",
"K. c #8D9780",
"L. c #919F80",
"P. c #95A384",
"I. c #99A583",
"U. c #9AAA8B",
/* pixels */
"B.' [ ' [ [ -.3.8.m $.D.| X.[ y.R 3 N P P P A j f 2 ~ z.[ [ ' '  .^ K K K K J K J J J J K J J J P P ~ 3.c 1 g S J S S S ! ~ ' &.",
"..w.3.[ ' ' ~ ~ [ m $.C.' [ ' f.;.8 J ! P P A j s 6 a.k.' ' _ _ Q W Q R K K K J K ! K K S J J J P P ! -.N : g A A A S J ! ~ 3.B ",
"q.6.8.3.' ~ ~ ~ [ N <.C.o.:.` f.>.w ~ P P L V j s 1 <.m.' _ Q Q R ~ ~ ~ ~ P L I ` ` K K ~ I J K P P P ,.H : f N B A P L I ~ 3.A ",
"' _ 3.2.' ~ ~ ~ [ c l.Z.o.7.' t.[ t ~ P P L A k g 2 I Z. ._ Q R R ~ ' ` R ~ ~ ' ~ K ~ ~ K J P P P P I a.K : f N N H L L ~ ' 3.J ",
"Q 3.[ [ [ ' ~ ~ :.m g.A.[ >.' u.{ t ' P P S A c j 0 H G.O.[ Q W W ` ~ ~ ' [ [ ~ ! ! ! ! ! ! ~ I I ~ ! h.~ & f A A L P ~ [ 3.0.J ",
"O.6.[ ~ ' ^ ! ! 8.M <.A.` ' ' f.8.t a.P S A V c k 0 v.G.' [ O.' ' _ [ :.:.[ _ ~ ~ ! Q ~ ~ ~ ~ ~ ~ -.3.G.;.< s z v v M N N N L h ",
"o.o.' ~ ^ R ! ! 3.M ;.C.:.:.;.t.' N c.M v c c k k s -.' J J K R ` _ [ [ [ O.3.3.:.[ [ [ [ [ [ [ :.~ F z 4 X o X O O % * * & : 4 ",
"' 3.' ` ! R R R [ B u M c z z h t w s 0 t w w s s 0 . * 3 6 8 9 9 w r f h M F J J J J A B N z z t % 0 ` a.a.r.3.,.-.-.$.~ ~ f * ",
"^ ' ' ~ R Q R R [ c 6 P H H K ` ` ` ' :.a.h.z.x.k.7.` c > 9 s f f f s w 8 4 4 4 4 4 8 8 w f z J t : S.G.7.y.h.0.3.2.-.-.$.$.-.f ",
"Q ~ ~ ~ ~ ~ Q ~ :.f L H.y.y.h.h.k.k.y.0.3.[ ' ' o.0.k.K * 9 x z z z z c z z z g g g g z v A K K 4 f G.~ J S S A S J S J P P $.S ",
"! ! K R ~ ! R ~ :.y C y.U J J B B B G J R R Q ^ ' o.o.H > 0 z c c v v v v N A H N H H K K K K ~ > c C.J J L H J A J J P P P ~ M ",
"! ! ! R ~ K J R 3.w N h.R J R R R Q ~ ^ ^ ' o.o.o.' ` A 4 9 v N N B H J G J J J J J G B J J K ~ 4 f v.J A A H B J L J P P P P f ",
"J K K ! ! J J ! :.w N y.[ ~ ^ _ ^ _ _ _ ' ^ ~ ~ ~ ~ I N 2 f A c N H J J J J G J J B B B B N A A 4 9 h.R A H H J J J J P P P ~ A ",
"S S J J J J P ! :.t 2 g v N c c z z z g g f g g g f t w 4 v c g z z z h g h g w w t y y f f y w > 3 -.R A H J B S J J J P P I g ",
"B N S S S S P ~ 7.t 2 I ` P P S A V x x x j j k g s s w 9 8 d z w 6 9 8 5 q f I I I L J H v t 8 & z D.S S S B B B S S S P S v j ",
"A B N S J J K ~ 8.y r <.K ~ ~ K S A A A M v c j s s s w 1 I S.C.C.G.G.S.D.D.D.G.G.A.A.D.G.P.S.K . J C.N S A A S A S S P P M z j ",
"S S S S S P ~ ~ 3.g f -.J S N k g h k k z z z k f w w q w <.~ ~ $.3.7.3.2.X.^ Q Q Q |  .6.k.z.J + A z.S S S S S S S S A A z z j ",
"J A A S S ! ~ ~ 0.g w g 1 3 3 2 1 1 2 3 3 1 1 3 9 s w : g -.J K J J K ! R ! R ~ Q Q Q ^ ' 2.8.v * h :.K J A A A A A A A A c v j ",
"~ ~ ~ ~ ~ ~ ~ ~ ~ t 1 s a.v.g.r.,.%.$.$.%.1.c.S.G.G.x.g d 0.R K K J ! ! ! ! ! ! ! ! Q ^ ' 2.y.v : 6 s g s f f f g g s p 0 4 4 & ",
"2 t z N N A v v t 2 % s.P.6.6.0.0.y.h.z.M.M.C.n.y.6.b.~ 7 7.W R K I K ! ~ ! J ! R ! E Q ^ ' y.N & 2 ~ R J c g g z A K ` -.:.%.~ ",
"w s A c z v A L I t * C.h.S ! ! ! J J J R R R Q ~ ^ 3.~ 6 0.W K K J K ~ R J R ! R K R R ~ _ h.A % D.G.k.m.Z.A.A.D.H.H.H.H.H.G.G.",
"s f C z c z V A ~ t < C.h.S J J K K ! ! ! K J R Q E O.R 4 h._ J J J K ! J ! ! R J J J R ~ ~ h.N g J.Q ~ R ! ~ R ! ! J J K R W Q ",
"2 s v v v v A J ~ t 1 v.x.B J J K K R B B J G J R R [ ! 1 h.[ K K K J K K J J ! ! J B R Q Q 0.A g C.^ R J J ! ! N J J K R R Q Q ",
"4 s c v v c v A K w 1 x.x.N J J K R R B R J J J U R ' K < y.[ ~ K K K K J J J K ! J B ! Q ~ 8.J w N.| Q J J R R B ! ! K R Q Q Q ",
"2 t c v v M A A J q 2 h.h.B J S K Q J ! Q K J B G R ' J > 7.O.~ ~ ~ K K J J K K K K K ~ ~ ~ >.K . ~ 0.! J J J J J R K ~ ' ' _ [ ",
"2 s c z v N A A A q 1 f.h.B J J ~ R R R J K J G G R ' B 4 h.8.y.y.7.t.7.7.8.:.:.7.7.:.:.:.-.y.J 9 z.3.J J J J ! K J R R ` :.' ' ",
"1 t z g z M A S A w > h.x.S J K ! G R R K J J G B U o.B , ' 3.:.' ` ` ~ ~ ~ ` ~ ` ' ' 8.7.7.7.g f n.Q R J G R R U R Q ~ :.O.' ' ",
"1 t z g z M S J J w : M.h.B J K J J R R K J J B B R o.M > t w 9 0 8 4 1 2 2 2 4 6 0 9 q t s t * t 3.^ R J R U U R R R Q Q ' _ _ ",
"1 s z g z N J J J w > M.3.J ! J J J J J J J J G U R o.z : 8 s g f g z x v N A A v v v v z v S j w 8.^ R J B G G R R Q Q ' Q W Q ",
"2 s c z m S J J J q 8 M.-.K K S J J J J J K J U R Q o.g < j c A S A S J S A A S S J L S A A A j < k.8.R Q ^ [ o.o.' ' O.8. .} } ",
"2 f v z M J A J J q t z.' ! B N J J K J J J J R ! E 3.f 4 x A L L P P J J J A J J H L L J S A j % S n.y.y.y.7.8.y.u.z.n.n.n.n.m.",
"& g C v N S S J K q g M.~ J J K J J J J J J J R R ^ 8.t 9 v C L P ~ ! J I J J B N A H J B A A k 1 . o 4 2 % O % 3 w t t t w t t ",
"> j A N S J J J ! 0 H v.J J J S S J J J J R R R R ' 0.t q V C L L ~ ~ Q ! J J N N B b N J A S x O c g.a.r.-.~ c 1 s f z z s w w ",
"w f A N S S H J ~ 3 -.y.J K J S S J J J R R R R R ' 3.9 q A A L J P J J J J S B B N N J K K ~ z . v.D.h.v.M.z.K q c N M v M A A ",
"w f L N J A J K ~ 3 -.i.~ R K J J R ! Q Q Q Q Q ^ 2.J , w M A A A A J K P I P K J ! ! R ~ ~ ' t s n.J G G W y.B 0 z c v C A Z M ",
"s w H J J J J H z o _ 6.J B N N N N B G J J J J S f $ @ 4 a f f f g s t g h c J ~ ~ ~ I J A c O ~ 8.N H J R 0.B 3 z M N A A V M ",
"f * q 4 1 w t t t t f g t w q , * 2 2 2 2 , , ,   w ~ 8.6.0.b.N.A.A.M.I . 6 z A A c N N B J N % 7.~ A H J R 3.z p J J S N z A M ",
"s * 0 I g.h.r.a.g.g.v.C.S.C.S.v.H 1 w s f j s # ,.D.m...| @.O.@.@.w.b.K % g z g g h h z M M M w a.R H H J R :.g w A A S N A A M ",
"f % ;.S.,.~ K K J S J ! ~ o.0.h.8.q s x V S g I I.Q ! K R R Q _ ' O.3.g : j z z z z c v v B N r x.J H J R R :.f 8 A c A A C M M ",
"w q x.J N A A A A A A A J R ' -.[ t s x A P h ;.n.J K K K G R Y _ O.3.t 2 k z h z c v v v N z 9 f.J J J R R 8.s 6 M Z A A A M M ",
"q v x.S A M M v v A v v A J ^ [ [ f s x C P j %.x.F K K J R R _ Q O.O.6 6 k j z z c v v c N l 3 h.Q B J R R :.t 8 Z M A A A M m ",
"8 J z.N A M v x A M v c N B Q [ O.f i x D P k %.n.G K J K R W _ Q @.3.2 0 x z z b v v z z N g = h.^ B R J K >.t w A M A A N M M ",
"4 I x.c Z M v C A N N N B G Q 6.8.h q x D P k ~ n.K K J R R _ T Q w.:.< 9 x z z b v c z z N g < 7._ J R R K :.f s A M A A A M n ",
"4 ~ x.c A M M A A B G B G U ' 0.8.z q x D P j ` k.J R J R W ) T Q @.' - 9 k v v v c c z c M g 3 3.O.~ Q _ _ 0.c r A M A A N M n ",
"2 ~ h.v A M m A A B G J G U | 8.8.c q z C L j ~ y.G J J J W W T } w._ ; 9 k z z z c z z z z w 1 ~ W K J R R 3.N t A M Z N N n n ",
"2 -.h.N A N m N N B G G G U ' 8.8.z q z C L g K O.G G J J W Q Q } @._ < 6 q A J J v c c z g f s f d f t t t r q 0 v M Z N N n B ",
"1 ,.h.N S N M B B G G G G W ' 8.8.h q V C L z K o.G G G G R Q / / @.W 1 1 1.C.n.M.z.z.M.M.n.M.v.x.h.h.h.h.y.y.z 0 A Z A N B R B ",
": r.y.S J A B m G R U U R W _ { [ y q x C P z ` O.U B G G G R Q | @._ * f C.Q Q Q _ ^ ' ' _ ^ ~ ~ Q Q Q Q ^ 8.g q S A S B B ! U ",
"0 s.h.B K J B G R R R W U W _ O.[ w w x A P z J 3.R G G R G R Q ..i.[ 4 w n. .' ' ' ' _ ' ' ^ ^ ~ ~ R Q Q ^ [ t q S B A A B J R ",
": -.0.J J B B G R U R R T Q _ @.' w s x A P M w _ 8.8.O.' _ O.i.i.i.' q $ W O.Q Q ' | ^ ^ ^ ^ ' _ ~ ! R ~ ^ 8.f q J J P K ~ h ,.",
". -.8.K J G B B U T W W Q Q _ i.' w f z v J z * q h g t t w t f t q 4 2 * f._ R ! ^ ' ' ' ^ ^ Q E ~ ~ Q E ^ 3.z 1 9 q t r t O 6 ",
"6 -.8.W R J B R W Q W W W W _ i.' w w t f z f f z z v c c B N N L J ~ 8 v C._ ' [ 3.3.O.o.' ' ^ E Q R B n B R h . v g.:.:.<.g.a.",
"d R 0.' [ W ~ ' _ Q _ _ _ _ i.m.' 6 t j v J I ~ ' ` ~ ~ ~ ` ' :.f.v.v.c t c z z z g f u s g g g h N K ' 7.3.~ f 2 S.M.y.y.h.7.0.",
"w N 8.' [ o.O.O. .' ' O.O.i.m.n.m 2 f k A J S J K J M B J R R R ! J K x 2 w q q q 9 q w w f N 1 P C.h.z.z.C.G.G A S.W R J B B J ",
"t 9 z m m M m m m z u l e t t r > t s f z B B B J K H K K R ~ ' [ ~ P c 3 s s f s f g f g z J 6 J [ n B J R [ c H n.Q Q B R R U ",
"w 3 C I L L I ~ I H 4 $ P <.:.' z w f f g c S J H J J ! ! ! K K ~ ~ S g 4 g t f g z c c z N H 6 [ ^ v F R Q -.A s n.Q Q R Q R R ",
"9 x C x c v A A V A 2 c.I.Z.n.n.~ 4 j s j c A A B B J ! R R R J J J A g 3 s t f h c N N v J H 1 7.3.B J Q ^ o.~ 4 z.O.E ^ ~ R R ",
"w v v A A A A c x g s C.8.o.' 0.' 4 g f g z M N B N M B G G B B B N A g 4 g t f z v v v A I ` 3 h 3.J W Q ^ 3.` 1 v.i.^ ' ' Q E ",
"t A A A C C v z z s x v.6.O.[ y.~ 9 j g g g z N N N v v N N n n b c A j 6 g s j z v v F J ~ I 9 g [ W Q ' ' 3.` 1 a.w.( ' X.X.' ",
"s A A C C c x z j s x C.6...o.u.J w z z z f s g z z c v v c v N A A J c 9 v z v N A H K ~ ` ` t N [ _ [ _ ' O.B 6 a.y.w.....3.6.",
"t v A v x j j j g s z C.O...O.u.J 9 f s s c A v g t t s t 9 4 6 0 9 q 2 & 9 0 w t w w w s g c 2 3 t f g g g f 8 4 N K _ 3.3.:.7.",
"$ 4 w 0 q q w t s w v S.O...O.u.S 1 g ~ v.G.M.7.~ s 1 6 s v I *.,.` ` -.a.a.h.v.M.v.c.f.r.<.a.7.,.r.-.A 2 1 w s s w w t d x v v ",
"I ` K L N z x g t t v C.O.O.[ u.J 2 N ~ #.S c z x w g U.P.L.G.G.C.z.h.0.0.0.0.7.3.3.3.3.3.7.0.3.0.h.n.n.g 6 z A M A J J K P -.,.",
"K.h.h.h.h.h.x.8.[ J N C...O.[ y.K 2 A P ! P J v j 4 L A.O.[ _ ' ' Q R ! J J J J J J S S S J J S J P ~ 0.h 3 z A S S S J ! ! ~ ,."
};
