/* XPM */
static char *a561b7b0c3eb4b37e9150be01e11d6e4LTfnCLUy0LPwB1x6[] = {
/* columns rows colors chars-per-pixel */
"64 64 96 2 ",
"   c #2A2A23",
".  c #312F26",
"X  c #322F29",
"o  c #35322D",
"O  c #39352E",
"+  c #3A382F",
"@  c #3B3632",
"#  c #3D3A34",
"$  c #413D36",
"%  c #423E39",
"&  c #45423A",
"*  c #49453E",
"=  c #4C483E",
"-  c #4A4640",
";  c #4E4A42",
":  c #514D45",
">  c #544E48",
",  c #545147",
"<  c #56524A",
"1  c #5A554D",
"2  c #5C584F",
"3  c #5C5650",
"4  c #5E5A52",
"5  c #625D55",
"6  c #655F58",
"7  c #646057",
"8  c #66625A",
"9  c #6A655C",
"0  c #6D695F",
"q  c #6D6760",
"w  c #6E6A61",
"e  c #706760",
"r  c #726D64",
"t  c #786F67",
"y  c #766F68",
"u  c #786F69",
"i  c #757166",
"p  c #767269",
"a  c #7A756B",
"s  c #7E796E",
"d  c #7E7770",
"f  c #7E7A71",
"g  c #80776F",
"h  c #807B6F",
"j  c #807770",
"k  c #827D73",
"l  c #887F77",
"z  c #877F78",
"x  c #887F78",
"c  c #858175",
"v  c #888276",
"b  c #868279",
"n  c #888179",
"m  c #898579",
"M  c #8A857B",
"N  c #88847C",
"B  c #8B877E",
"V  c #8C847C",
"C  c #8C897C",
"Z  c #8F887F",
"A  c #908B7F",
"S  c #8E8780",
"D  c #8E8A81",
"F  c #8F8C82",
"G  c #908981",
"H  c #928C83",
"J  c #968F8A",
"K  c #939087",
"L  c #959085",
"P  c #959288",
"I  c #979489",
"U  c #97958B",
"Y  c #9A958B",
"T  c #9A958C",
"R  c #9C988D",
"E  c #9C9A8F",
"W  c #9C9790",
"Q  c #9F9A90",
"!  c #9E9A91",
"~  c #9F9D93",
"^  c #A09B90",
"/  c #A09D93",
"(  c #A19C95",
")  c #A59F98",
"_  c #A3A096",
"`  c #A4A198",
"'  c #A6A29A",
"]  c #A9A49A",
"[  c #A8A39C",
"{  c #ABA79D",
"}  c #ABA79E",
"|  c #ABA89E",
" . c #ACA9A0",
".. c #AFACA3",
"X. c #AFAAA4",
"o. c #B0AFA5",
/* pixels */
"J y y e q 0 e y y e 9 2 : 3 a Z V n c c c M M c k 4 k P T U D B D K Z 4 * - 7 a p a f k b k r q a r q 9 r r w k k s a s p w < 3 ",
"z z j a a a a p y e 9 9 < : L L M a p i y y r w r p ' / ~ ~ R U L L Y p & B ] ' {  ...o.o...| { [ ( H Z Z V M Y Y R ! / ( ( Y 9 ",
"z z j a a a a y y e 0 9 7 * p y 0 6 4 6 7 6 8 0 a f ~ H F B B M c c Z 9 9 { Y s k h k k k k j s s a a i i i y 0 p s f k c M Z H ",
"z z z z j k j a y y e w 0 & 9 a i 0 7 9 9 9 9 y a p ~ Z M c M c k c Z 7 p ^ k k z c c k h k k j k s s s a a a a i s s s a i i k ",
"n n V n z z z a p a y r 0 & 7 a a i r 9 9 9 9 a a r T M c k c c f c c 4 i H h k k k k k f s a a a a a a a a r i r r a a i i i s ",
"G V Z n z z z a a p r w 9 % 6 s i e r 0 8 w a s a r Z c c k f a a a k < e M c z k k s s s a a i i i a a p i y r r 0 8 a p i y p ",
"H G H D n n x k a p y e 7 o 7 a r e r 0 0 0 a k c w Z c c k f f k k i : r c z n k s a a a a i i i p a a i r 0 9 0 0 5 9 r i i r ",
"H G V n n j j a a a a j a $ 0 k i a a p a a s k M 6 c s a s f f p r 9 : w k k M M s a i i a i i i i r r 0 0 0 0 0 0 9 5 9 r y a ",
"n n S ! R G S n n z z x y * 7 k k n j a r 9 4 1 < & - ; ; ; < 2 4 < ; & 9 z s M Z z i i i i i r r r r r r r r 0 0 e 9 r a r r s ",
"( X.X.' ^ T H G G H V S r : $ ; 4 4 2 1 2 9 p a f B P T P U T T ! ! ! 9 5 n a Z Z j r i i y r r i r y i i r r 0 9 0 0 a a y r 0 ",
"8 a a q 6 6 6 6 9 a z V r > > T ^ W T H H G G G G H G G D D D H L R ^ k 5 s a M Z s e i i r r r y i i i r r r r 9 7 y a i i 7 7 ",
"z u e e y y y y r 5 1 0 9 ; 4 T V n n n n n V V V V G D G G V Z D G H d 2 y a V M k r r y a i i r r i i i r r a r r a i a i 8 9 ",
"l z z z j a a a a a y 6 e ; 5 G z z v n V V V V V G G G G G D D V V H f < 0 a Z c k z p a s a i a r r i i i i i i p a p p i 0 9 ",
"z j j a g a a a a j a w y * 6 G z v n n n V V V D G H H G H G G G V L k < 0 a M c k k c k s s a a a r i i a a i p a a a a r r 8 ",
"z k j g g g g j j j y q 0 ; 6 V z z n n n n V V V B G H Y Y H H R H L k < 8 a c s j k s s s s s a i a 9 i s a a a i i i i a r 0 ",
"k k j a a p y r r y 8 q 6 6 5 n c z M n n n V V V G H H Y T Y T ) Y L k < 0 s k s k f s s s s s a a w s j a i a a i i p i i r y ",
"4 > : ; ; = ; ; : - & - 1 : : j z n V n V G G H H H J L L Y R T T H Y n : r j s s j k k j j s s j y e k y p a a a a a a a a a a ",
"w f f f f f f j f y r q 6 2 2 2 1 2 8 w w a B H Y R R R T R H G G Y P z * 6 a s f s a i y p y i a r 0 a a a a a a r 0 9 9 9 0 0 ",
"{ / L H H G V V Z G H R ! Y Y H D Z H H n a < < r n k j 0 6 4 4 6 0 e 6 @ : < 6 6 , ; ; - ; ; ; : 2 , 1 9 6 6 6 1 ; = * = ; < : ",
"Y a a a a a i r i i i i s k z V H H H M c Y T 7 # * 2 w p p p f j k a a r 6 2 * & w a f n c k f a a s f k n n M b n n D b a 9 4 ",
"c a s s h s a a i i a a a s a a a a i i a y Z a 9 R Y H / ' ( T R Y L P T Y ( T : L / H H H H K K H H H H L Y ^ _ _ _ ' ( ! T H ",
"c j s s s s a a i r y i a a s s a s a a s s j 7 k T w y r i p p a a k c B M T ! 7 w s f s f k k c M M M Z H U ! ( _ ' _ ( ~ [ ( ",
"k a a s i i i y y r i i a h s s a a a a s s s 8 r 9 9 w i p p a s f k z c c V s 7 4 a k f f f k k k b B H K T R R ! ! ( _ _ { ( ",
"s j s i a a i r y i a a a a a a a a a a a s s 6 7 7 9 0 r i i a j k k k c n c a 6 1 a k k j f f f f c b M B L L H L F P { [ o.{ ",
"k s a a s a r i i a a a a a a a a a a a a a a 2 7 9 7 9 w r p s s k k k c M k r 4 2 8 f k f f s s f f c b Z L H H K K B F R T ~ ",
"k s a p i i a i i i p a a a a a a a a a a a a < 7 8 7 0 r r i s s s k k c M M r 2 9 6 a k f f a a s s c b B H H H H H F B H k 5 ",
"s a a a a j a a a a a a a p a i a a s a a a i , 7 9 8 9 r r i a s j k k c M M i 2 7 5 i c j a a a a s k M D D F H H F D H Y k 0 ",
"i a a a i y 9 0 i s f s s s s k j i w a s s a 2 7 7 8 9 r r r a f k k k n n Z a < 7 5 i c k s p p a s s c M D H D Z Z Z D P b 9 ",
"2 < : : ; < 4 2 4 4 w w 9 8 7 9 7 : : , 2 4 4 ; 8 7 8 w r r i s k k k z n B B 9 , 6 6 r c k k a a p p f c M Z D B M B B D H n 0 ",
"& r r 9 9 9 7 7 7 7 5 r r 9 0 9 i a 9 2 < < * ; 7 7 9 r r i a s k k c c b D b r 2 3 2 9 c f k f s a a a c M B B B B B Z H H c w ",
"a k a p a a a a f k k Z n z k k j a a a a B f - 7 9 9 r i p a s s c v c M L K 0 < 2 2 7 c f k k f f f k b B Z Z D D F H H H B w ",
"i 4 6 6 7 7 7 7 7 7 w w p p p p a a a f s M B 1 7 0 0 r i p a s a c v M Z Y D 9 , 4 6 : 0 f f c n c c F Z F F H H H P P L H F i ",
"7 7 7 8 7 8 8 8 9 8 r r a a a a a a a a f a k 8 4 r w i i p a s s c V Z F Y G 7 : : 2 : * ; < 4 9 6 w p 0 w w w w w 9 7 6 7 7 4 ",
"9 9 9 7 7 8 8 8 9 9 w p a a a a a a r e a i k 4 7 9 9 9 i a a h a k Z D H Y H 6 : < 7 6 6 2 ; % o @ $ . + & & * ; * 4 w 6 : ; * ",
"9 9 0 9 9 8 9 9 9 8 i p a a a s a r r p r r p 4 z a y r 9 y a f s c Z D P R H 6 - p Z c z a a i 4 a M i Z R ^ R H a D ' ^ Y L H ",
"9 0 9 0 0 0 9 9 0 w i r a s a w 7 i a p r w p 6 j k a s j a r p a n Z H T R P 7 ; r v k k a r w 5 Z L R / ! R Y k c k k c c c Z ",
"9 w w 0 9 0 9 w r r i p r 0 i s p r i i w w p 2 s k k k k B B V T Z f Y ! ! T 9 & s v c k s i e 7 f / ! M h f s s k s s s s s a ",
"w w w 0 0 w w r i i p f w s f p w r i r 9 9 p < k n c n n M V G P / B a Z R ! 9 & s k i a s a a 6 n / c c c k k a s k k k k z k ",
"w w r r w r r r i p a a p a w w w r i r 0 0 y , f Z M M V Z Z H Y R [ ! a 4 a 9 * a a r r r i a 7 n U c v c k k a s k k k k k c ",
"r r w r r r r r r w w w a r i i r r r w 9 0 r ; f Z Z Z Z D D Y ! ( ( ' { T 2 8 ; i s w 0 9 0 s 7 a L c v c k k a a j k k k c n ",
"r i i i p i r r 0 r i a a r i i r r r w 0 0 w * j Z M Z H G n z n G ! ! n w 2 7 ; i c i r r s s 1 9 A c v k k k a a s j k k c M ",
"r p p p i i i w p s a p p i r w w r r w w w w & d H Z c w 2 < < , 2 w r , : - 2 * 8 7 2 3 2 7 2 # 4 Z v c k k a i a s k c c z c ",
"a a p p p p a a a a a a a a i r r r r w w w w : < i a 4 6 r s p ; @ # $ & * # * ; @ X % ; < > ; # 4 M c h k a r r a s k c c c n ",
"a a f f s a d a a a p a a p p r w w e e 9 9 w 6 0 : : 5 e a 6 > w n H Y T T P 9 * 1 q t a u y 8 $ 7 v k s k a r a a f k k Z M v ",
"< 4 - & & & # # @ # $ & % % & # @ % ; > : < 9 a r d 0 $ -   7 T L L H H H L ! ) q 8 a r r e e 6 @ 0 M k s s i a s s k k k Z M k ",
"# O : 6 6 7 9 0 q q r r y a k B D H P T W ! ' { G w 8 4 $ 9 R H M c c c c M M Y n 0 y r r e 0 7 # 9 Z k s s i a s s k k k c Z a ",
"o 4 H H H H H G H Y Y H G G H H G V n z z j k s L H 7 S 3 f L H V M M M V A H ! j e a e r e 8 5 & 5 n j s a i a s f k c k v M B ",
"* y H j j j a a j z j j k k k s a a a a a j j k n f q d 2 a Y L Z M M M M G H ^ a : y y e r 0 4 # 2 k s s a y i s k c c c v c M ",
": z z a j k j j j g j j j j j h a a a g k n v k z a u a : i Y L Z V Z M M Z Z ! f 2 5 0 y e e 8 - 1 z z s a a s k c c v n b n M ",
"2 j a j k j j j j j a j j g j h a a a a k v c c k a a a < e Y Y Z V M M M M V / k 5 a 2 9 y e 9 : * 9 s s k c k k k c v c v c V ",
"< r a v z j j j j j f j s j j g a a a a k v x n k a a p 1 r D Z D Z B M M Z Z ^ a 1 a q : 5 e 0 ; 3 a 9 s z k k s j j k v v c V ",
"< 6 j v v k j j k j k f p j j h a a a a z n l v a y a p < = f H Z Z Z Z Z Z Z ^ f 1 a 8 y e 2 q % z R D i k f s s s f h c c c V ",
"2 6 k n n k c v v c c c j j j j a a a h z n v k V a r a 9 2 V G Z Z Z Z V Z M T f 1 a 6 0 u 6 8 % f H H s a j s s s j f h c c M ",
"2 6 j n n v v v v x l n n z j j a a a j n V n n G H k 9 r : H L H H Z H H G Z R q 5 u 6 0 8 e q ; a L M L s s s s s s s s c c c ",
"< 5 a V x v v c n n V n V c j j j j j V V V V V G H H 7 w & 0 7 4 4 1 2 7 9 0 0 O 6 4 q e 9 e q - r H M c c k k s s s s s k k z ",
"1 5 a V n n v n n n n V V B z c c n G G V G H H H G Z 8 9 $ w n n k s f a f b F q : w e 0 0 e q % w L B c s s a s s s s s c c k ",
"< 4 f V n n n V V n n n V V n M G H H H H Y H G n V T q 9 $ k k a f f k c Z L _ H 2 u e 0 0 e q % 9 L M M k a a s s a a h c c c ",
"> 2 a V V V V V V V V n B D G H G G H H Y R H G H d f q 7 * p r i p f f f c c F b 2 r w 0 0 e e & 7 H M M k k k k a i i f c c V ",
"> 3 j V V V G S Z Z V V D M V B G Y Y R R R Y R a 1 2 6 q : p p a p a p k b c H B * 8 w 0 q e e % 7 L n v k j k k s a a k z k Z ",
"2 5 r V V G G G H H H H Y R f T { ( R ( R Y R B < 2 6 r r 2 p a a i a a k c Z V a $ 6 y q r w r * 9 H c c k k k k s s s k k v k ",
"3 8 1 e G H Y Y R T Y T T W k ' X.{ { { ' ( ! 7 > 9 a a a 4 p a a s f k k Z c 6 r & @ q y r r a - 8 Z c c k s s j k k k c M c r ",
"2 2 5 > 7 w r e r q 9 q 9 r 8 ! { ) ( ( T T k : r j j n j < a a s k k c b a , j B > > ; y a a 4 o 9 M v k s k k k k k c M M a c ",
"$ < - - * - ; * : e u a e 3 6 q > : ; : : > 2 1 9 a a y < & 6 a a s k f f 3 w D j : a ; 4 9 > ; # 6 v c i w 0 9 9 0 r i i 9 a i ",
"8 X # @ # - - - ; : 2 < ; & $ : 3 2 < < > > > : $ - * O @ # & < 2 2 6 4 < ; 6 4 : - 8 3 # : 5 8 ; : 5 4 2 : : ; * - ; ; ; ; * 7 "
};
